<svg viewBox="-2 -2 44 44" width="40" height="40" xmlns="http://www.w3.org/2000/svg">
  <path
    d="M 18.9523,11.0726 C 18.5586,7.69873 18.1429,4.13644 18.1429,0 h 3.7142 c 0,4.08998 -0.4137,7.64774 -0.8069,11.0254 -0.3203,2.7526 -0.6267,5.3856 -0.6836,8.0896 1.865,-1.9453 3.4964,-4.008 5.2054,-6.1687 2.1071,-2.664 4.3323,-5.47685 7.257,-8.40166 l 2.6264,2.6264 c -2.8921,2.89206 -5.7007,5.11506 -8.367,7.22556 l -0.0025,0.0019 c -2.1718,1.7193 -4.2494,3.3639 -6.2009,5.2349 2.694,-0.0569 5.3061,-0.3617 8.0422,-0.681 C 32.3011,18.5586 35.8636,18.1429 40,18.1429 v 3.7142 c -4.0898,0 -7.6476,-0.4139 -11.0251,-0.8069 l -0.0025,-2e-4 c -2.752,-0.3202 -5.3842,-0.6264 -8.0874,-0.6834 1.944,1.8636 4.0056,3.4943 6.1649,5.2021 l 0.0034,0.0029 c 2.6641,2.1073 5.4771,4.3323 8.4021,7.2574 l -2.6264,2.6264 c -2.8921,-2.892 -5.115,-5.7004 -7.2252,-8.3665 l -0.005,-0.0069 -0.0042,-0.0055 c -1.7171,-2.1684 -3.3597,-4.2427 -5.228,-6.1915 0.0569,2.704 0.3633,5.337 0.6836,8.0896 0.3932,3.3777 0.8069,6.9354 0.8069,11.0254 h -3.7142 c 0,-4.1364 0.4157,-7.6987 0.8094,-11.0726 l 8e-4,-0.0055 c 0.3189,-2.7342 0.6234,-5.3447 0.6803,-8.0369 -1.8683,1.9488 -3.5109,4.0231 -5.228,6.1915 l -0.0042,0.0055 -0.005,0.0069 C 12.286,29.755 10.0631,32.5634 7.17104,35.4554 L 4.54464,32.829 c 2.92495,-2.9251 5.73796,-5.1501 8.40206,-7.2574 l 0.0034,-0.0029 C 15.1094,23.8609 17.171,22.2302 19.115,20.3666 16.411,20.4237 13.7779,20.73 11.0251,21.0502 7.6476,21.4432 4.08984,21.8571 0,21.8571 v -3.7142 c 4.13644,0 7.69894,0.4157 11.0728,0.8095 2.7361,0.3193 5.3482,0.6241 8.0422,0.681 C 17.1627,17.7617 15.0843,16.1166 12.9116,14.3966 10.2453,12.2861 7.43666,10.0631 4.54464,7.17104 l 2.6264,-2.6264 c 2.92466,2.92481 5.14986,5.73766 7.25696,8.40166 1.709,2.1606 3.3404,4.2233 5.2054,6.1685 -0.0569,-2.6921 -0.3614,-5.3025 -0.6803,-8.0367 z"
    fill="#5b6ef5" />
</svg>